<svg xmlns="http://www.w3.org/2000/svg" viewBox="0 0 200 60">
  <defs>
    <linearGradient id="belden-gradient" x1="0%" y1="0%" x2="100%" y2="100%">
      <stop offset="0%" style="stop-color:#8B5CF6;stop-opacity:1" />
      <stop offset="100%" style="stop-color:#7C3AED;stop-opacity:1" />
    </linearGradient>
  </defs>
  <!-- Stylized B Icon -->
  <g transform="translate(10, 10)">
    <!-- Outer shape -->
    <rect x="0" y="0" width="40" height="40" rx="8" ry="8" fill="url(#belden-gradient)"/>
    <!-- Inner B design -->
    <path d="M12 10 L12 30 L22 30 Q28 30 28 25 Q28 22 25 21 Q28 20 28 17 Q28 10 22 10 Z M17 18 L21 18 Q23 18 23 16 Q23 14 21 14 L17 14 Z M17 26 L21 26 Q23 26 23 24 Q23 22 21 22 L17 22 Z" 
          fill="white" opacity="0.9"/>
    <!-- Decorative lines -->
    <rect x="8" y="8" width="24" height="1" fill="white" opacity="0.3"/>
    <rect x="8" y="31" width="24" height="1" fill="white" opacity="0.3"/>
  </g>
  
  <!-- Belden Text -->
  <text x="60" y="35" font-family="Arial, sans-serif" font-size="28" font-weight="500" fill="#1a1a2e">Belden</text>
</svg>